#!OML:ASF X:\für Bonn\!DataBase\2005_08_12_Daniel\c3d\Daniel.ASF
:FULLY-SPECIFIED
:DEGREES
1186
root 3.54796 16.6694 19.5351 -182.202 -35.1215 -182.208
lowerback 13.5224 1.15094 -0.442337
upperback 1.48293 1.16957 -2.00117
thorax -5.98566 0.492262 -2.06905
lowerneck 1.11841 -8.85159 -11.0338
upperneck 6.08709 -12.854 12.6445
head 3.15114 -6.46552 5.15328
rclavicle 1.31695e-013 -2.62396e-014
rhumerus -27.9934 -9.33511 -89.3656
rradius 25.4552
rwrist 10.6208
rhand -22.5608 17.2861
rfingers 7.12502
rthumb 3.86727 -12.6586
lclavicle 1.31695e-013 -2.62396e-014
lhumerus -119.772 55.9256 -37.2562
lradius 12.4729
lwrist -89.6963
lhand -15.4305 -5.22182
lfingers 7.12502
lthumb 10.7495 24.4831
rfemur 25.6718 2.88256 26.6359
rtibia 21.9236
rfoot -1.37885 9.19756
rtoes 4.8483
lfemur -34.4795 -6.44642 -18.7466
ltibia 45.7746
lfoot -10.8362 -8.12456
ltoes -10.868
1187
root 3.42238 16.6691 19.371 -182.029 -34.9358 -182.949
lowerback 13.8113 1.22502 -1.15271
upperback 1.54388 1.12551 -2.18488
thorax -6.0939 0.477288 -1.85886
lowerneck 1.0582 -8.82492 -11.1656
upperneck 6.19818 -12.8165 12.6012
head 3.19515 -6.44667 5.15787
rclavicle -4.22417e-015 3.97569e-015
rhumerus -28.6562 -10.0411 -89.1337
rradius 24.5036
rwrist 10.315
rhand -22.3504 16.276
rfingers 7.12502
rthumb 4.07037 -13.6649
lclavicle -4.22417e-015 3.97569e-015
lhumerus -120.508 55.9985 -37.8984
lradius 12.4319
lwrist -89.8353
lhand -15.4021 -4.62459
lfingers 7.12502
lthumb 10.7769 25.0789
rfemur 23.7095 2.09235 25.3447
rtibia 26.2648
rfoot 0.605688 9.16307
rtoes 4.35277
lfemur -33.7693 -6.03571 -19.602
ltibia 46.3909
lfoot -11.2923 -8.26734
ltoes -10.481
1188
root 3.29682 16.6739 19.2067 -181.911 -34.7154 -183.626
lowerback 14.0934 1.29768 -1.8029
upperback 1.62599 1.08411 -2.35124
thorax -6.17419 0.461861 -1.66434
lowerneck 0.96067 -8.79752 -11.2562
upperneck 6.30037 -12.7684 12.5172
head 3.2362 -6.42085 5.14272
rclavicle -1.59028e-014 -8.74653e-015
rhumerus -29.2661 -10.6038 -88.885
rradius 23.4967
rwrist 10.3047
rhand -22.0288 15.3313
rfingers 7.12502
rthumb 4.38097 -14.6034
lclavicle -1.59028e-014 -8.74653e-015
lhumerus -120.576 56.3248 -37.6944
lradius 12.4226
lwrist -89.4791
lhand -15.29 -4.10032
lfingers 7.12502
lthumb 10.8851 25.5976
rfemur 21.8838 1.49992 24.1873
rtibia 30.2909
rfoot 3.1776 8.6706
rtoes 3.30203
lfemur -32.9621 -5.7149 -20.373
ltibia 46.8851
lfoot -11.8342 -8.29085
ltoes -10.1655
1189
root 3.17168 16.6822 19.0424 -181.846 -34.4797 -184.217
lowerback 14.3834 1.35993 -2.36359
upperback 1.6988 1.03766 -2.51947
thorax -6.26628 0.441713 -1.52196
lowerneck 0.845592 -8.76909 -11.2577
upperneck 6.4423 -12.7203 12.3933
head 3.28369 -6.39389 5.10023
rclavicle -4.82053e-015 -3.97569e-016
rhumerus -29.8485 -11.1949 -88.6163
rradius 22.3964
rwrist 10.7833
rhand -21.54 14.5893
rfingers 7.12502
rthumb 4.85297 -15.3352
lclavicle -4.82053e-015 -3.97569e-016
lhumerus -120.397 56.7318 -37.2459
lradius 12.429
lwrist -89.1067
lhand -15.0156 -3.77347
lfingers 7.12502
lthumb 11.1497 25.9103
rfemur 20.1423 1.01119 23.1574
rtibia 34.0892
rfoot 5.87553 7.80294
rtoes 1.67968
lfemur -32.1006 -5.32088 -21.0742
ltibia 47.2914
lfoot -12.4017 -8.34117
ltoes -9.93069
1190
root 3.04834 16.6957 18.8789 -181.904 -34.2241 -184.618
lowerback 14.6729 1.4117 -2.77085
upperback 1.78659 1.00395 -2.63307
thorax -6.33929 0.425307 -1.41061
lowerneck 0.813481 -8.72758 -11.3389
upperneck 6.51975 -12.6587 12.3213
head 3.30511 -6.36422 5.09219
rclavicle 1.01728e-013 1.35174e-014
rhumerus -30.3686 -11.8296 -88.2747
rradius 21.2046
rwrist 11.7763
rhand -20.9391 14.0899
rfingers 7.12502
rthumb 5.43311 -15.8205
lclavicle 1.01728e-013 1.35174e-014
lhumerus -119.554 57.3584 -35.9806
lradius 12.44
lwrist -88.311
lhand -14.6952 -3.68354
lfingers 7.12502
lthumb 11.4587 25.9833
rfemur 18.4403 0.610006 22.3477
rtibia 37.7497
rfoot 8.33879 6.68397
rtoes -1.28342
lfemur -31.1948 -4.9507 -21.5844
ltibia 47.628
lfoot -13.0241 -8.35623
ltoes -9.94964
1191
root 2.92513 16.7093 18.7155 -182.033 -33.9452 -184.914
lowerback 14.9519 1.44387 -3.06581
upperback 1.88771 0.961558 -2.73755
thorax -6.38977 0.401815 -1.35066
lowerneck 0.758399 -8.6714 -11.469
upperneck 6.61513 -12.5785 12.2802
head 3.33843 -6.32506 5.10099
rclavicle -1.61513e-014 -3.57812e-015
rhumerus -30.8272 -12.4284 -87.9334
rradius 19.9751
rwrist 13.2099
rhand -20.2448 13.7824
rfingers 7.12502
rthumb 6.10345 -16.1096
lclavicle -1.61513e-014 -3.57812e-015
lhumerus -118.434 58.081 -34.3922
lradius 12.4747
lwrist -87.3676
lhand -14.2856 -3.79796
lfingers 7.12502
lthumb 11.8537 25.8465
rfemur 16.762 0.26651 21.6584
rtibia 41.3084
rfoot 10.4499 5.38839
rtoes -3.78834
lfemur -30.2509 -4.53922 -22.0109
ltibia 47.9148
lfoot -13.7279 -8.37909
ltoes -10.1297
